<svg version="1.1" id="card" xmlns="http://www.w3.org/2000/svg" x="0" y="0" viewBox="0 0 250 400" style="enable-background:new 0 0 250 400" xml:space="preserve">
  <style></style>

  <path id="frame" d="M0 13v375c0 6.6 5.4 12 12 12h226c6.6 0 12-5.4 12-12V13c0-6.6-5.4-12-12-12H12C5.4 1 0 6.4 0 13zm245.5 321H4.5V14.5c0-5.5 4.5-10 10-10h221c5.5 0 10 4.5 10 10V334z" style="fill:#f9f9f9"/>

  <g id="details">
    <text transform="translate(19.8 376.27)" fill="#b3b3b3" style="font-size:10px;font-family:'Consolas'">HOOLEY.ETH</text>
    <text transform="translate(19.72 364.61)" fill="#b3b3b3" style="font-size:14px;font-family:'Arial'">Gavin Belson</text>
  </g>

  <g id="logo">
    <path fill="#ccc" d="M209.3 361.1a7.06 7.06 0 0 0 0 9.9c2.7 2.7 7.2 2.7 9.9 0l-4.9-4.9 4.9-4.9a6.8 6.8 0 0 0-9.9-.1z"/>
    <circle fill="#ccc" cx="222.3" cy="366" r="2.9"/>
  </g>

  <text id="score" transform="matrix(.8791 0 0 1 31.74 63.7)" style="letter-spacing:-1.1;font-size:39.3277px;font-family:'Verdana';opacity:.65;fill:#fff">289</text>

  <linearGradient id="chipGradient" gradientUnits="userSpaceOnUse" x1="197.32" y1="34.06" x2="225.96" y2="73.76">
    <stop offset=".16" style="stop-color:#fff"/>
    <stop offset=".93" style="stop-color:gray"/>
  </linearGradient>

  <path id="chip" d="M199.4 56v-2.6h-5.2V63c0 2.7 2.5 5 5.5 5h5.5v-8.8h-2.6c-1.5 0-3.2-1.4-3.2-3.2zm1.3-12.5v12.3c0 1.1 1 2 2.3 2h11.3c1.2 0 2.3-.9 2.3-2V43.2c0-1-.9-1.8-1.9-1.8H203c-1.2 0-2.3 1-2.3 2.1zm-1.3 2.9h-5.2v5.5h5.2v-5.5zm7.1 21.6h4.8v-8.8h-4.8V68zm11-36.5h-4.8v8.2h1.9c2 0 3.5 1.4 3.5 3.2v2.3h4.8v-8.8c.1-2.7-2.4-4.9-5.4-4.9zm.7 20.4h4.8v-5.5h-4.8v5.5zm-18.8-9c0-1.8 1.6-3.2 3.2-3.2h2.6v-8.2h-5.5c-3 0-5.5 2.2-5.5 5v8.8h5.2v-2.4zM218.2 56c0 1.8-1.6 3.2-3.5 3.2h-1.9V68h4.8c3 0 5.5-2.2 5.5-5v-9.6h-4.8V56zm-6.8-24.5h-4.8v8.2h4.8v-8.2z" style="fill:url(#chipGradient)"/>
</svg>
