<?xml version="1.0" encoding="utf-8"?>
<!-- Generator: Adobe Illustrator 25.2.1, SVG Export Plug-In . SVG Version: 6.00 Build 0)  -->
<svg version="1.1" id="card" xmlns="http://www.w3.org/2000/svg" xmlns:xlink="http://www.w3.org/1999/xlink" x="0px" y="0px"
	 viewBox="0 0 250 400" style="enable-background:new 0 0 250 400;" xml:space="preserve">
<style type="text/css">
	.st0{fill:#F9F9F9;}
	.st1{fill:#B3B3B3;}
	.st2{font-family:'Consolas';}
	.st3{font-size:10px;}
	.st4{font-family:'Montserrat-SemiBold';}
	.st5{font-size:14px;}
	.st6{fill:#CCCCCC;}
	.st7{opacity:0.65;fill:#FFFFFF;}
	.st8{font-family:'Montserrat-Medium';}
	.st9{font-size:39.3277px;}
	.st10{letter-spacing:-1.1;}
	.st11{fill:url(#SVGID_1_);}
</style>
<!-- <image style="overflow:visible;" width="242" height="344" id="meshgradient" transform="matrix(1 0 0 1 4 5)"> -->
<!-- </image> -->
<path id="Frame" class="st0" d="M0,13v375c0,6.6,5.4,12,12,12h226c6.6,0,12-5.4,12-12V13c0-6.6-5.4-12-12-12H12C5.4,1,0,6.4,0,13z
	 M245.5,334H4.5V14.5c0-5.5,4.5-10,10-10h221c5.5,0,10,4.5,10,10V334z"/>
<g id="Details">
	<text transform="matrix(1 0 0 1 19.7927 376.2695)" class="st1 st2 st3">HOOLEY.ETH</text>
	<text transform="matrix(1 0 0 1 19.7229 364.6117)" class="st1 st4 st5">Gavin Belson</text>
</g>
<g>
	<path class="st6" d="M209.3,361.1c-2.7,2.7-2.7,7.2,0,9.9c2.7,2.7,7.2,2.7,9.9,0l-4.9-4.9l4.9-4.9
		C216.4,358.3,212,358.3,209.3,361.1z"/>
	<circle class="st6" cx="222.3" cy="366" r="2.9"/>
</g>
<text transform="matrix(0.8791 0 0 1 31.7432 63.6963)" class="st7 st8 st9 st10">289</text>
<g>
	<linearGradient id="SVGID_1_" gradientUnits="userSpaceOnUse" x1="197.3159" y1="34.0579" x2="225.9593" y2="73.7641">
		<stop  offset="0.1606" style="stop-color:#FFFFFF"/>
		<stop  offset="0.932" style="stop-color:#808080"/>
	</linearGradient>
	<path class="st11" d="M199.4,56v-2.6h-5.2V63c0,2.7,2.5,5,5.5,5h5.5v-8.8h-2.6C201.1,59.2,199.4,57.8,199.4,56z M200.7,43.5v12.3
		c0,1.1,1,2,2.3,2h11.3c1.2,0,2.3-0.9,2.3-2V43.2c0-1-0.9-1.8-1.9-1.8H203C201.8,41.4,200.7,42.4,200.7,43.5z M199.4,46.4h-5.2v5.5
		h5.2V46.4z M206.5,68h4.8v-8.8h-4.8V68z M217.5,31.5h-4.8v8.2h1.9c2,0,3.5,1.4,3.5,3.2v2.3h4.8v-8.8
		C223,33.7,220.5,31.5,217.5,31.5z M218.2,51.9h4.8v-5.5h-4.8V51.9z M199.4,42.9c0-1.8,1.6-3.2,3.2-3.2h2.6v-8.2h-5.5
		c-3,0-5.5,2.2-5.5,5v8.8h5.2V42.9z M218.2,56c0,1.8-1.6,3.2-3.5,3.2h-1.9V68h4.8c3,0,5.5-2.2,5.5-5v-9.6h-4.8V56z M211.4,31.5
		h-4.8v8.2h4.8V31.5z"/>
</g>
</svg>
