<?xml version="1.0" encoding="utf-8"?>
<!-- Generator: Adobe Illustrator 25.2.1, SVG Export Plug-In . SVG Version: 6.00 Build 0)  -->
<svg version="1.1" id="Layer_1" xmlns="http://www.w3.org/2000/svg" xmlns:xlink="http://www.w3.org/1999/xlink" x="0px" y="0px"
	 viewBox="0 0 250 400" style="enable-background:new 0 0 250 400;" xml:space="preserve">
<style type="text/css">
	.st0{fill:#1B2798;}
	.st1{fill:url(#BG_2_);}
	.st2{fill:#F9F9F9;}
	.st3{fill:#B3B3B3;}
	.st4{font-family:'Consolas';}
	.st5{font-size:9.7392px;}
	.st6{font-family:'ArialMT';}
	.st7{font-size:13.6349px;}
	.st8{fill:#CCCCCC;}
	.st9{opacity:0.65;fill:#FFFFFF;enable-background:new    ;}
	.st10{font-family:'Verdana';}
	.st11{font-size:39.33px;}
	.st12{fill:url(#chip_1_);}
</style>
<path id="BG" class="st0" d="M10.5,0h229.1c5.8,0,10.5,4.7,10.5,10.5V340H0V10.5C0,4.7,4.7,0,10.5,0z"/>
<linearGradient id="BG_2_" gradientUnits="userSpaceOnUse" x1="125.047" y1="28.8064" x2="124.9481" y2="336.7757">
	<stop  offset="0.1917" style="stop-color:#000000;stop-opacity:0.4"/>
	<stop  offset="1" style="stop-color:#808080;stop-opacity:0"/>
</linearGradient>
<path id="BG_1_" class="st1" d="M10.5,0h229.1c5.8,0,10.5,4.7,10.5,10.5V340H0V10.5C0,4.7,4.7,0,10.5,0z"/>
<path id="Base" class="st2" d="M12,400h226c6.6,0,12-5.4,12-12v-48H0v48C0,394.6,5.4,400,12,400z"/>
<g id="details">
	<text transform="matrix(1.0235 0 0 1 18.5903 378.0586)" class="st3 st4 st5">07/23</text>
	<text transform="matrix(1.0235 0 0 1 18.5 366.7031)" class="st3 st6 st7">Gavin Belson</text>
</g>
<g id="logo" transform="translate(4.69 3.41)">
	<path class="st8" d="M206.4,360.3c-3.5,3.5-3.5,9.2,0,12.7c3.5,3.5,9.2,3.5,12.7,0l-6.3-6.3l6.3-6.3c-3.3-3.5-8.8-3.8-12.3-0.5
		C206.7,360,206.5,360.1,206.4,360.3z"/>
	<ellipse class="st8" cx="223.1" cy="366.6" rx="3.7" ry="3.7"/>
</g>
<text id="score" transform="matrix(0.8791 0 0 1 31.7397 62.6999)" class="st9 st10 st11">289</text>
<linearGradient id="chip_1_" gradientUnits="userSpaceOnUse" x1="194.9334" y1="370.5688" x2="220.9968" y2="334.4405" gradientTransform="matrix(1 0 0 -1 4.69 403.41)">
	<stop  offset="0.16" style="stop-color:#FFFFFF"/>
	<stop  offset="0.93" style="stop-color:#808080"/>
</linearGradient>
<path id="chip" class="st12" d="M201.5,52.8v-2.4h-4.7v8.7c0,2.5,2.3,4.6,5,4.6h5v-8h-2.4C203.1,55.7,201.5,54.4,201.5,52.8z
	 M202.7,41.4v11.2c0,1,0.9,1.8,2.1,1.8h10.3c1.1,0,2.1-0.8,2.1-1.8V41.1c0-0.9-0.8-1.6-1.7-1.6h-10.6
	C203.7,39.5,202.7,40.4,202.7,41.4L202.7,41.4z M201.5,44.1h-4.7v5h4.7V44.1z M208,63.7h4.4v-9.3H208V63.7z M218,30.5h-4.4V38h1.7
	c1.8,0,3.2,1.3,3.2,2.9V43h4.4v-8C223,32.5,220.7,30.5,218,30.5z M218.6,49.1h4.4v-5h-4.4V49.1z M201.5,40.9c0-1.6,1.5-2.9,2.9-2.9
	h2.4v-7.5h-5c-2.7,0-5,2-5,4.6v8h4.7C201.5,43.1,201.5,40.9,201.5,40.9z M218.6,52.8c0,1.6-1.5,2.9-3.2,2.9h-1.7v8h4.4
	c2.7,0,5-2,5-4.6v-8.7h-4.4L218.6,52.8L218.6,52.8z M212.5,30.5h-4.4v9h4.4V30.5z"/>
</svg>
