<svg id='omnid' xmlns='http://www.w3.org/2000/svg' xmlns:xlink='http://www.w3.org/1999/xlink' viewBox='0 0 250 400'>
	<defs>
		<linearGradient id='chipGradient' x1='125.05' y1='28.81' x2='124.95' y2='336.78' gradientUnits='userSpaceOnUse'>
			<stop offset='0.19' stop-opacity='0.4'/>
			<stop offset='1' stop-color='gray' stop-opacity='0'/>
		</linearGradient>
		<linearGradient id='tintGradeint' x1='194.93' y1='370.57' x2='221' y2='334.44' gradientTransform='matrix(1, 0, 0, -1, 4.69, 403.41)' gradientUnits='userSpaceOnUse'>
			<stop offset='0.16' stop-color='#fff'/>
			<stop offset='0.93' stop-color='gray'/>
		</linearGradient>
	</defs>

	<path fill="#224191" d="M0 0h250v360H0z"/><path d="M93 172.7a11 11 0 0 1 10.6-11.5h.6c5.6 0 9 3.3 10 7.2l-3.5 1.2a6 6 0 0 0-6.4-4.8c-3.7 0-7.3 2.7-7.3 8s3.6 7.9 7.4 7.9c3.1.1 5.8-1.9 6.6-4.9l3.4 1.1a9.8 9.8 0 0 1-10.1 7.3 11 11 0 0 1-11.2-10.8l-.1-.7zm28 11h-3.6v-22.6h3.6v8.9c1.1-1.3 2.7-2 4.3-1.9 3.8 0 5.5 2.7 5.5 6v9.6h-3.5v-9a3 3 0 0 0-2.5-3.3h-.7a3.2 3.2 0 0 0-3.2 3.2v.3l.1 8.8zm18-8.7 3.9-.6c.9-.1 1.1-.6 1.1-1.1 0-1.3-.9-2.3-2.9-2.3-1.6-.1-3 1-3.1 2.6v.2l-3.3-.7c.3-2.6 2.7-5 6.4-5 4.7 0 6.5 2.7 6.5 5.8v7.6l.2 2.4h-3.3c-.1-.6-.2-1.3-.1-1.9a5.2 5.2 0 0 1-4.7 2.4 4.9 4.9 0 0 1-5.2-4.4v-.2c-.1-2.9 1.9-4.4 4.5-4.8zm5 2.5v-.7l-4 .6a2 2 0 0 0-2 2.1c0 1.1.9 2 2 2h.2c1.9.2 3.6-1.2 3.8-3.1v-.9zm9.8-16.7c1.3 0 2.4 1 2.4 2.3 0 1.3-1.1 2.4-2.4 2.4a2.4 2.4 0 0 1-2.4-2.4c0-1.3 1.1-2.3 2.4-2.3zm-1.8 23v-15.3h3.6v15.2l-3.6.1zm11.9-.1h-3.6v-15.2h3.5v2a5.2 5.2 0 0 1 4.5-2.5c3.7 0 5.5 2.7 5.5 6v9.6h-3.6v-9c0-1.9-.9-3.4-3.1-3.4a3.2 3.2 0 0 0-3.2 3.2v9.3zm14.3 0v-22.6h3.6v22.6h-3.6zm10.1-22.9a2.3 2.3 0 1 1 .1 4.7c-1.3 0-2.4-1-2.4-2.3 0-1.4 1-2.4 2.3-2.4zm-1.8 23v-15.3h3.6v15.2l-3.6.1zm11.9-.1h-3.6v-15.2h3.5v2a5.2 5.2 0 0 1 4.5-2.5c3.7 0 5.5 2.7 5.5 6v9.6h-3.6v-9a3 3 0 0 0-2.5-3.3h-.7a3.2 3.2 0 0 0-3.2 3.2v.4l.1 8.8zm22.4-8.8 6.4 8.9h-4.4l-4.4-6.3-1.9 2v4.2h-3.6v-22.6h3.6v13.6l5.8-6.2h4.8l-6.3 6.4zM50 155l15.7 9v18.1l-15.6 9.1-15.7-9v-18.1L50 155m0-13.3-5.8 3.3-15.7 9.1-5.8 3.3v31.4l5.8 3.3 15.7 9 5.8 3.3 5.8-3.3 15.6-9.1 5.8-3.3v-31.4l-5.8-3.3-15.7-9-5.7-3.3z" fill="#fff"/>

    <path id='tint' d='M10.47,0H239.53A10.47,10.47,0,0,1,250,10.47V340a0,0,0,0,1,0,0H0a0,0,0,0,1,0,0V10.47A10.47,10.47,0,0,1,10.47,0Z' style='fill:url(#chipGradient)'/>
	<path id='base' d='M0,340H250a0,0,0,0,1,0,0v48a12,12,0,0,1-12,12H12A12,12,0,0,1,0,388V340a0,0,0,0,1,0,0Z' style='fill:#f9f9f9'/>
	<g id='details'>
		<text transform='translate(18.59 378.06) scale(1.02 1)' style='isolation:isolate;font-size:9.739181518554688px;fill:#b3b3b3;font-family:Consolas'>07/23</text>
		<text transform='translate(18.5 366.7) scale(1.02 1)' style='isolation:isolate;font-size:13.634854316711426px;fill:#b3b3b3;font-family:ArialMT, Arial'>Gavin Belson</text>
	</g>
	<g id='logo'>
		<path d='M211.1,363.68a9,9,0,0,0,12.7,12.72l-6.29-6.3,6.29-6.29a8.72,8.72,0,0,0-12.33-.49C211.34,363.43,211.22,363.56,211.1,363.68Z' transform='translate(0 0)' style='fill:#ccc'/>
		<ellipse cx='227.78' cy='369.98' rx='3.72' ry='3.73' style='fill:#ccc'/>
	</g>
	<text id='score' transform='translate(31.74 62.7) scale(0.88 1)' style='opacity:0.6499999761581421;isolation:isolate;font-size:39.33000183105469px;fill:#fff;font-family:Verdana;letter-spacing:-0.02700198407225477em'>289</text>
	<path id='chip' d='M201.53,52.8V50.43H196.8v8.74a4.86,4.86,0,0,0,5,4.55h5v-8h-2.37A3.06,3.06,0,0,1,201.53,52.8Zm1.19-11.38V52.61a2,2,0,0,0,2.09,1.82h10.28a2,2,0,0,0,2.09-1.82V41.15a1.7,1.7,0,0,0-1.72-1.64H204.81a2.09,2.09,0,0,0-2.09,1.91Zm-1.19,2.64H196.8v5h4.73ZM208,63.72h4.37V54.43H208ZM218,30.5h-4.36V38h1.72a3,3,0,0,1,3.19,2.91V43h4.37V35C223,32.5,220.73,30.5,218,30.5Zm.64,18.56H223v-5h-4.37Zm-17.11-8.19A3,3,0,0,1,204.44,38h2.37V30.5h-5a4.8,4.8,0,0,0-5,4.55v8h4.73ZM218.64,52.8a3.06,3.06,0,0,1-3.18,2.91h-1.73v8h4.36a4.8,4.8,0,0,0,5-4.55V50.43h-4.37V52.8Zm-6.19-22.3h-4.37v9h4.37Z' transform='translate(0 0)' style='fill:url(#tintGradeint)'/>
</svg>
