<svg id='omnid' xmlns='http://www.w3.org/2000/svg' xmlns:xlink='http://www.w3.org/1999/xlink' viewBox='0 0 250 400'><defs><linearGradient id='chipGradient' x1='125.05' y1='28.81' x2='124.95' y2='336.78' gradientUnits='userSpaceOnUse'><stop offset='0.19' stop-opacity='0.2'/><stop offset='1' stop-color='gray' stop-opacity='0'/></linearGradient><linearGradient id='tintGradeint' x1='194.93' y1='370.57' x2='221' y2='334.44' gradientTransform='matrix(1, 0, 0, -1, 4.69, 403.41)' gradientUnits='userSpaceOnUse'><stop offset='0.16' stop-color='#fff'/><stop offset='0.93' stop-color='gray'/></linearGradient><clipPath id='frame'><path d='M10.47,0H239.53A10.47,10.47,0,0,1,250,10.47V340a0,0,0,0,1,0,0H0a0,0,0,0,1,0,0V10.47A10.47,10.47,0,0,1,10.47,0Z'/></clipPath></defs><g clip-path='url(#frame)'>

		<defs>
            <style>
                :root { --color1: rgb(107,89,225); --color2: rgb(193,238,218); --color3: rgb(146,219,200); --color4: rgb(2,174,128); --color5: rgb(138,221,162); --num1: 1; --num2: 2; --num3: 2; --num4: 3; --num5: 4;}
            </style>
        </defs>

        <g fill="none" strokeLinecap="round">
            <path id='background' d='M10,0H240a10,10,0,0,1,10,10V340a0,0,0,0,1,0,0H0a0,0,0,0,1,0,0V10A10,10,0,0,1,10,0Z' style='fill:#0b0b0b'/>
            <path d="M498.6 289.2c-6.8 14.3-108.9 79.6-183.6 151.6C203.1 548.7 88.4 301.1 15.2 237.9 0 224.8 84.8 114.3 168.1 73.8c1.9-.9 5-4.8 5.8-2.8 71.2 165.7 226.7-63.1 289-5.3 66.4 61.8-36.5 198.6 35.7 223.5z" stroke="var(--color1)" strokeWidth="1.5" strokeDasharray="9,9,9,9,9,9"/>
            <path d="M168.3 77.8c1.9-.9 4.9-4.7 5.7-2.8 33.1 72.8 83.9 65.9 135.1 41.3 57.7-27.9 116.5-76 149.6-45.5 66.1 60.9-32.2 194.6 34.5 217.5-8.1 13.2-109.1 82-180.8 150C204.8 540.6 87.1 293.5 19.1 238.6 4.6 226.8 87.5 118 168.3 77.8z" stroke="var(--color2)" strokeWidth="calc(1.48*var(--num2))" strokeDasharray="8.94,8.94,8.94,8.94,8.94,8.94"/>
            <path d="M168.5 81.7c1.9-.9 4.7-4.6 5.6-2.9 32.9 68.1 82.7 63.2 133 39.4 56.4-26.7 114.4-72.7 147.5-42.5 65.7 60.1-27.9 190.7 33.3 211.5-9.5 12.1-109.4 84.2-178 148.4C206.3 532.4 85.8 285.9 23.1 239.2c-14-10.3 67.1-117.5 145.4-157.5z" stroke="var(--color3)" strokeWidth="calc(1.47*var(--num3))" strokeDasharray="8.87,8.87,8.87,8.87,8.87,8.87"/>
            <path d="M168.7 85.7c1.8-1 4.6-4.5 5.5-2.9 32.7 63.4 81.5 60.5 130.9 37.5 55.1-25.6 112.3-69.4 145.4-39.5 65.4 59.3-23.6 186.7 32.1 205.4-10.8 11-109.7 86.5-175.3 146.7-99.4 91.4-222.8-154.4-280.3-193C13.7 231 92.9 125.3 168.7 85.7z" stroke="var(--color4)" strokeWidth="calc(1.45*var(--num4))" strokeDasharray="8.81,8.81,8.81,8.81,8.81,8.81"/>
            <path d="M168.9 89.6c1.8-1 4.5-4.5 5.3-2.9 32.5 58.8 80.3 57.7 128.7 35.6 53.7-24.6 110.2-66.1 143.3-36.5 65 58.5-19.3 182.8 30.9 199.4-12.2 9.9-110 88.8-172.5 145.1-95.1 85.9-221.3-159-273.7-189.7-12.6-7.4 64.7-111.6 138-151z" stroke="var(--color5)" strokeWidth="calc(1.44*var(--num5))" strokeDasharray="8.74,8.74,8.74,8.74,8.74,8.74"/>
            <path d="M169.1 93.6c1.7-1 4.3-4.4 5.2-2.9 32.3 54.1 79.1 55 126.6 33.7C353.2 100.9 409 61.6 442.1 91c64.6 57.7-15 178.9 29.7 193.4-13.5 8.8-110.3 91.1-169.7 143.5C211 508 82.3 264.3 34.9 241.3c-12.1-5.9 63.4-108.7 134.2-147.7z" stroke="var(--color1)" strokeWidth="calc(1.42*var(--num1))" strokeDasharray="8.68,8.68,8.68,8.68,8.68,8.68"/>
            <path d="M169.3 97.5c1.7-1 4.2-4.3 5.1-3 32.1 49.6 77.9 52.3 124.5 31.8 50.9-22.4 106-59.6 139.1-30.4 64.4 56.8-10.7 174.9 28.5 187.4-14.9 7.7-110.5 93.4-166.9 141.9-87 74.7-217.9-167.6-260.8-183.3-11.3-4.1 62.2-105.7 130.5-144.4z" stroke="var(--color2)" strokeWidth="1.4" strokeDasharray="8.61,8.61,8.61,8.61,8.61,8.61"/>
            <path d="M169.5 101.5c1.7-1 4.1-4.2 4.9-3 31.9 45 76.7 49.5 122.4 29.9 49.6-21.3 103.9-56.3 137-27.4 64 56-6.4 171 27.3 181.4-16.3 6.6-110.8 95.6-164.2 140.2-82.7 69.1-214.2-179.8-254.2-180-9.8-4.5 61-102.8 126.8-141.1z" stroke="var(--color3)" strokeWidth="calc(1.39*var(--num3))" strokeDasharray="8.55,8.55,8.55,8.55,8.55,8.55"/>
            <path d="M169.7 105.4c1.6-1 3.9-4.1 4.8-3 31.7 40.6 75.5 46.8 120.3 28 48.2-20.2 101.8-53 134.8-24.4 63.7 55.1-2.1 167.1 26.1 175.4-17.6 5.5-111.1 97.9-161.4 138.6-78.6 63.5-212.4-185.6-247.6-176.7-9.1-3.3 59.7-100 123-137.9z" stroke="var(--color4)" strokeWidth="calc(1.37*var(--num4))" strokeDasharray="8.48,8.48,8.48,8.48,8.48,8.48"/>
            <path d="M169.9 109.4c1.6-1 3.8-4.1 4.7-3.1 31.6 36.2 74.2 44 118.1 26.1 46.8-19.1 99.7-49.7 132.7-21.4 63.3 54.3 2.2 163.2 24.9 169.4-19 4.4-111.4 100.2-158.6 137C217.3 475.3 81.1 226.1 50.6 244c-8.3-2.1 58.4-97.1 119.3-134.6z" stroke="var(--color5)" strokeWidth="calc(1.35*var(--num5))" strokeDasharray="8.42,8.42,8.42,8.42,8.42,8.42"/>
            <path d="M170.1 113.3c1.6-1 3.7-4 4.5-3.1 31.6 31.9 73 41.3 116 24.1 45.4-18.1 97.6-46.4 130.6-18.4 63 53.5 6.5 159.2 23.7 163.4-20.3 3.4-111.6 102.4-155.8 135.4-70.3 52.4-208.8-197-234.6-170.1-7.5-.8 57.2-94.2 115.6-131.3z" stroke="var(--color1)" strokeWidth="calc(1.34*var(--num1))" strokeDasharray="8.35,8.35,8.35,8.35,8.35,8.35"/>
            <path d="M170.3 117.3c1.5-1 3.6-3.9 4.4-3.1 31.6 27.7 71.8 38.5 113.9 22.2 44-17 95.5-43.2 128.5-15.4 62.6 52.7 10.8 155.3 22.5 157.4-21.7 2.3-111.9 104.7-153 133.7-66.2 46.8-207.1-202.7-228.1-166.8-6.8.4 55.9-91.4 111.8-128z" stroke="var(--color2)" strokeWidth="calc(1.32*var(--num2))" strokeDasharray="8.29,8.29,8.29,8.29,8.29,8.29"/>
            <path d="M170.5 121.2c1.5-1 3.4-3.8 4.3-3.2 31.8 23.6 70.5 35.8 111.8 20.3C329.2 122.5 380 98.6 413 126c62.2 51.9 15.1 151.4 21.2 151.4-23 1.2-112.2 106.9-150.3 132.1C222 450.6 78.7 201 62.5 246c-6.1 1.6 54.5-88.6 108-124.8z" stroke="var(--color3)" strokeWidth="calc(1.31*var(--num3))" strokeDasharray="8.23,8.23,8.23,8.23,8.23,8.23"/>
            <path d="M170.7 125.2c1.4-1 3.3-3.7 4.2-3.2 32.2 19.5 69.3 33 109.7 18.4 41.2-14.9 91.3-36.6 124.3-9.4 61.9 51.1 19.4 147.4 20 145.4-24.4.1-112.4 109.1-147.5 130.5-57.8 35.3-203.5-214.2-215-160.3-5.3 2.8 53.3-85.7 104.3-121.4z" stroke="var(--color4)" strokeWidth="calc(1.29*var(--num4))" strokeDasharray="8.16,8.16,8.16,8.16,8.16,8.16"/>
            <path d="M170.9 129.1c1.4-1 3.3-3.8 4-3.2 35.1 9 68.1 30.3 107.6 16.5 39.8-13.8 89.2-33.3 122.2-6.4 61.5 50.2 23.7 143.5 18.8 139.4-25.7-1-112.6 111.2-144.7 128.9-53.7 29.5-201.7-220-208.5-157-4.5 4 52-83 100.6-118.2z" stroke="var(--color5)" strokeWidth="calc(1.27*var(--num5))" strokeDasharray="8.1,8.1,8.1,8.1,8.1,8.1"/>
            <path d="M171.1 133.1c1.4-1 3.2-3.7 3.9-3.2 35.2 4.1 66.8 27.5 105.4 14.6 38.4-12.8 87.1-30 120.1-3.3 61.1 49.4 28 139.6 17.6 133.4-27.1-2.1-112.8 113.3-141.9 127.2C226.8 425.4 76.3 176 74.3 248c-3.8 5.2 50.7-80.3 96.8-114.9z" stroke="var(--color1)" strokeWidth="calc(1.26*var(--num1))" strokeDasharray="8.03,8.03,8.03,8.03,8.03,8.03"/>
            <path d="M171.3 137c1.3-1 3.1-3.6 3.8-3.3 35.3-.7 65.6 24.7 103.3 12.7 37-11.8 85-26.7 118-.3 60.8 48.6 32.3 135.6 16.4 127.4-28.4-3.2-113 115.4-139.2 125.6-45.1 17.7-198.1-231.4-195.4-150.4-3 6.4 49.4-77.6 93.1-111.7z" stroke="var(--color2)" strokeWidth="calc(1.24*var(--num2))" strokeDasharray="7.97,7.97,7.97,7.97,7.97,7.97"/>
            <path d="M171.6 141c1.3-1 2.9-3.5 3.6-3.3 35.4-5.6 64.3 21.9 101.2 10.8 35.6-10.7 82.9-23.4 115.8 2.7 60.4 47.8 36.6 131.7 15.2 121.3-29.8-4.3-113 117.4-136.4 124-40.7 11.6-196.3-237.2-188.8-147.2-2.3 7.7 48-74.9 89.4-108.3z" stroke="var(--color3)" strokeWidth="calc(1.23*var(--num3))" strokeDasharray="7.9,7.9,7.9,7.9,7.9,7.9"/>
            <path d="M171.8 144.9c1.3-1.1 2.8-3.5 3.5-3.3 35.6-10.5 63.1 19.2 99.1 8.9 34.1-9.7 80.8-20.1 113.7 5.7 60 47 40.9 127.8 14 115.3-31.1-5.4-112.9 119.3-133.6 122.4C232.3 399.3 87.9 150.2 86.1 250c-.2 9 46.7-72.3 85.7-105.1z" stroke="var(--color4)" strokeWidth="calc(1.21*var(--num4))" strokeDasharray="7.84,7.84,7.84,7.84,7.84,7.84"/>
            <path d="M172 148.9c1.2-1.1 2.7-3.4 3.4-3.4 35.7-15.4 61.8 16.4 97 7 32.7-8.7 78.7-16.8 111.6 8.7 59.7 46.2 45.2 123.9 12.8 109.3C364.3 264 284 395.2 266 391.2c-30.9 5.2-180.9-249.8-176-140.5.5 10.1 45.3-69.7 82-101.8z" stroke="var(--color5)" strokeWidth="calc(1.19*var(--num5))" strokeDasharray="7.77,7.77,7.77,7.77,7.77,7.77"/>
            <path d="M172.2 152.8c1.2-1.1 2.6-3.3 3.3-3.4 35.8-20.3 60.5 13.6 94.8 5.1 31.3-7.7 76.5-13.5 109.5 11.7 59.3 45.4 49.5 119.9 11.6 103.3-33.9-7.6-113.1 127.1-128.1 119.1-26.5-.2-180.7-255.8-169.3-137.2 1.1 11.3 43.9-67.1 78.2-98.6z" stroke="var(--color1)" strokeWidth="calc(1.18*var(--num1))" strokeDasharray="7.71,7.71,7.71,7.71,7.71,7.71"/>
            <path d="M172.4 156.8c1.1-1.1 2.4-3.2 3.1-3.4 35.9-25.2 59.3 10.8 92.7 3.2 29.8-6.8 74.4-10.2 107.4 14.7 58.9 44.6 53.8 116 10.4 97.3C350.8 260 272.7 398 260.7 386.1 238.5 380.4 80.3 124.4 97.9 252c1.7 12.5 42.5-64.5 74.5-95.2z" stroke="var(--color2)" strokeWidth="calc(1.16*var(--num2))" strokeDasharray="7.65,7.65,7.65,7.65,7.65,7.65"/>
            <path d="M172.6 160.7c1.1-1.1 2.4-3.1 3-3.5 40.2-24.4 58 7.9 90.6 1.3 28.4-5.8 72.3-7 105.3 17.7 58.5 43.8 58.1 112.1 9.2 91.3-36.6-9.7-113.5 131.8-122.5 115.9-17.9-11.1-180-267.4-156.3-130.8 2.3 13.8 41-61.9 70.7-91.9z" stroke="var(--color3)" strokeWidth="calc(1.15*var(--num3))" strokeDasharray="7.58,7.58,7.58,7.58,7.58,7.58"/>
            <path d="M172.8 164.7c1-1.1 2.3-3 2.9-3.5 40.2-30.3 56.7 5.1 88.5-.6 26.9-4.8 70.2-3.7 103.2 20.7 58.2 43 62.4 108.1 8 85.3-37.9-10.8-113.7 134.2-119.7 114.2C242 364.3 76.3 107.8 106 253.3c2.8 15 39.4-59.4 66.8-88.6z" stroke="var(--color4)" strokeWidth="calc(1.13*var(--num4))" strokeDasharray="7.52,7.52,7.52,7.52,7.52,7.52"/>
            <path d="M173 168.6c1-1.1 2.1-3 2.7-3.5 40-36.1 55.4 2.2 86.4-2.5 25.5-3.9 68.1-.4 101.1 23.7 57.8 42.2 66.7 104.2 6.8 79.3-39.3-11.9-110.6 135.9-117 112.6-6.3-23-178.7-278.6-143.2-124.2 3.6 16.2 38-57 63.2-85.4z" stroke="var(--color5)" strokeWidth="calc(1.11*var(--num5))" strokeDasharray="7.45,7.45,7.45,7.45,7.45,7.45"/>
            <path d="M173.2 172.6c1-1.1 2-2.9 2.6-3.6 39.7-41.9 54.1-.7 84.2-4.5 24-3 66 2.9 99 26.8 57.4 41.4 71 100.3 5.6 73.3-40.6-13-111.6 138.8-114.2 111C247.7 348 72.5 91.4 113.7 254.7c4.4 17.4 36.5-54.6 59.5-82.1z" stroke="var(--color1)" strokeWidth="1.1" strokeDasharray="7.39,7.39,7.39,7.39,7.39,7.39"/>
            <path d="M173.4 176.5c.9-1.2 1.9-2.9 2.5-3.6 39.3-47.5 52.8-3.6 82.1-6.4 22.5-2.1 63.8 6.2 96.8 29.8 57 40.6 75.3 96.4 4.4 67.3-42-14.1-112.4 141.4-111.4 109.4 1-32.7-176.9-289.8-130.2-117.6 5.1 18.6 35-52.2 55.8-78.9z" stroke="var(--color2)" strokeWidth="calc(1.08*var(--num2))" strokeDasharray="7.32,7.32,7.32,7.32,7.32,7.32"/>
            <path d="M173.6 180.5c.9-1.2 1.8-2.8 2.4-3.6 38.9-53 51.5-6.6 80-8.3 21.1-1.3 61.7 9.6 94.7 32.8 56.6 40 79.6 92.4 3.2 61.3-43.3-15.2-113.2 143.9-108.6 107.7 4.7-37.9-176-295.3-123.8-114.3 5.8 19.8 33.4-49.8 52.1-75.6z" stroke="var(--color3)" strokeWidth="calc(1.06*var(--num3))" strokeDasharray="7.26,7.26,7.26,7.26,7.26,7.26"/>
            <path d="M173.8 184.5c.8-1.2 1.6-2.7 2.2-3.6 38.5-58.4 50.3-7.7 77.9-10.2 19.6-1.7 59.6 12.9 92.6 35.8 56.2 39.2 83.9 88.5 1.9 55.3-44.7-16.3-113.9 146.2-105.9 106.1 8.7-43.4-174.8-300.9-117-111.2 6.4 21.2 31.6-47.3 48.3-72.2z" stroke="var(--color4)" strokeWidth="calc(1.05*var(--num4))" strokeDasharray="7.19,7.19,7.19,7.19,7.19,7.19"/>
            <path d="M174 188.4c.8-1.2 1.5-2.7 2.1-3.7 38-63.7 49-11.3 75.8-12.1 18.2-.6 57.5 16.2 90.5 38.8 55.8 38.4 88.2 84.6.7 49.3-46-17.4-114.4 148.6-103.1 104.5 12.5-48.7-173.8-306.4-110.6-107.8 7.1 22.4 29.9-44.9 44.6-69z" stroke="var(--color5)" strokeWidth="calc(1.03*var(--num5))" strokeDasharray="7.13,7.13,7.13,7.13,7.13,7.13"/>
            <path d="m174.2 192.4 2-3.7c37.6-69 47.7-15.8 73.6-14 16.8 1.2 55.3 19.5 88.4 41.8 55.5 37.5 92.5 80.6-.5 43.3-47.4-18.4-114.9 150.9-100.3 102.9 16.5-54.2-172.7-311.9-104.1-104.5 7.9 23.5 28.2-42.7 40.9-65.8z" stroke="var(--color1)" strokeWidth="calc(1.02*var(--num1))" strokeDasharray="7.06,7.06,7.06,7.06,7.06,7.06"/>
            <path d="M332.4 258.8C283.6 239.2 217 411.9 234.8 360c20.5-59.7-171.5-317.5-97.5-101.3 8.5 24.9 26.3-40.1 37.1-62.4 38.7-79.7 47.9-22.8 73.4-19.6 41 5 242 145.2 84.6 82.1z" stroke="var(--color2)" strokeDasharray="7,7,7,7,7,7"/>
        </g>

    </g><path id='tint' d='M10.47,0H239.53A10.47,10.47,0,0,1,250,10.47V340a0,0,0,0,1,0,0H0a0,0,0,0,1,0,0V10.47A10.47,10.47,0,0,1,10.47,0Z' style='fill:url(#chipGradient)'/><g id='details'><path id='base' d='M0,340H250a0,0,0,0,1,0,0v48a12,12,0,0,1-12,12H12A12,12,0,0,1,0,388V340a0,0,0,0,1,0,0Z' style='fill:#000'/><text transform='translate(18.59 378.06) scale(1.02 1)' style='isolation:isolate;font-size:9.739181518554688px;fill:#b3b3b3;font-family:Consolas'>
    11/11/2021 #0
    </text><text transform='translate(18.5 366.7) scale(1.02 1)' style='isolation:isolate;font-size:13.634854316711426px;fill:#b3b3b3;font-family:ArialMT, Arial'>
    AYEE
    </text></g><g id='logo'> <path d='M 218.798 384.637 L 218.236 384.637 C 218.216 384.612 218.192 384.588 218.167 384.567 L 217.465 384.497 C 216.623 384.286 215.921 383.865 215.29 383.374 C 214.518 382.742 213.957 381.971 213.395 381.128 C 212.693 380.006 212.132 378.743 211.711 377.48 C 210.784 374.65 210.333 371.686 210.378 368.709 C 210.358 368.682 210.334 368.658 210.307 368.639 L 210.307 368.287 C 210.333 368.266 210.356 368.243 210.378 368.218 L 210.448 365.551 C 210.535 364.539 210.676 363.531 210.869 362.534 C 211.22 360.92 211.641 359.376 212.273 357.903 C 212.764 356.85 213.325 355.868 214.026 354.956 C 214.588 354.184 215.29 353.552 216.131 353.061 C 216.767 352.663 217.489 352.422 218.236 352.36 C 219.092 352.312 219.943 352.507 220.693 352.92 C 221.382 353.301 222 353.8 222.517 354.394 C 224.411 356.909 225.663 359.847 226.166 362.955 C 226.326 363.79 226.442 364.633 226.517 365.48 L 226.657 367.516 L 226.657 369.059 C 226.652 369.106 226.652 369.153 226.657 369.199 L 226.587 371.235 C 226.506 372.271 226.365 373.302 226.166 374.322 C 225.902 375.638 225.526 376.929 225.043 378.181 C 224.622 379.374 224.06 380.567 223.289 381.69 C 222.657 382.462 222.026 383.233 221.184 383.795 C 220.572 384.201 219.876 384.465 219.149 384.567 L 218.798 384.637 Z M 223.921 368.498 L 223.921 366.884 C 223.844 364.973 223.609 363.072 223.219 361.201 C 222.961 359.883 222.585 358.591 222.096 357.341 C 221.745 356.429 221.324 355.587 220.763 354.886 C 220.412 354.465 220.061 354.043 219.64 353.763 C 219.29 353.552 218.938 353.412 218.447 353.412 C 218.071 353.429 217.706 353.55 217.395 353.763 C 216.974 354.043 216.623 354.465 216.272 354.886 C 215.781 355.587 215.36 356.359 215.009 357.201 C 214.307 358.885 213.886 360.71 213.535 362.604 C 213.392 363.581 213.299 364.565 213.255 365.551 C 213.148 368.031 213.195 370.515 213.395 372.989 C 213.501 374.027 213.665 375.057 213.886 376.076 C 214.167 377.339 214.518 378.602 215.009 379.866 C 215.36 380.707 215.781 381.479 216.342 382.181 C 216.693 382.672 217.044 383.023 217.535 383.304 C 218.097 383.654 218.728 383.725 219.359 383.374 C 219.755 383.184 220.113 382.923 220.412 382.602 C 220.973 381.971 221.324 381.269 221.675 380.567 C 222.236 379.514 222.588 378.321 222.938 377.199 C 223.37 375.448 223.652 373.664 223.78 371.866 C 223.921 370.744 223.921 369.621 223.921 368.498 Z' style='fill:#b3b3b3'/><path d='M 234.656 372.428 L 234.656 372.849 C 234.633 372.846 234.609 372.846 234.586 372.849 L 234.516 373.41 C 234.305 374.042 233.884 374.602 233.393 375.164 C 232.762 375.725 231.989 376.216 231.148 376.638 C 227.201 378.226 222.983 379.037 218.728 379.023 C 218.702 379.044 218.679 379.068 218.658 379.094 L 218.307 379.094 C 218.284 379.092 218.26 379.092 218.236 379.094 L 215.571 378.953 C 214.588 378.907 213.582 378.789 212.553 378.602 C 210.98 378.364 209.43 377.988 207.922 377.48 C 206.869 377.128 205.887 376.708 204.975 376.147 C 204.203 375.656 203.571 375.164 203.08 374.533 C 202.659 373.971 202.449 373.41 202.378 372.849 C 202.309 372.147 202.519 371.445 202.94 370.884 C 203.291 370.323 203.852 369.832 204.414 369.41 C 205.256 368.779 206.308 368.287 207.361 367.937 C 209.969 366.953 212.715 366.385 215.5 366.253 L 217.535 366.182 L 217.886 366.113 L 219.079 366.113 C 219.123 366.14 219.17 366.164 219.219 366.182 L 221.324 366.253 C 222.307 366.323 223.289 366.393 224.341 366.604 C 225.645 366.796 226.935 367.077 228.201 367.446 C 229.393 367.796 230.586 368.218 231.709 368.849 C 232.481 369.27 233.253 369.832 233.814 370.533 C 234.236 371.024 234.516 371.515 234.586 372.147 L 234.656 372.428 Z M 218.517 368.287 L 216.904 368.358 C 214.999 368.421 213.1 368.609 211.22 368.919 C 209.914 369.106 208.625 369.387 207.361 369.761 C 206.519 370.042 205.676 370.392 204.905 370.814 C 204.483 371.094 204.063 371.375 203.782 371.726 C 203.571 372.006 203.431 372.287 203.431 372.638 C 203.431 372.919 203.571 373.199 203.782 373.48 C 204.063 373.831 204.483 374.111 204.905 374.392 C 208.279 375.85 211.897 376.66 215.571 376.778 C 218.049 376.876 220.532 376.852 223.008 376.708 L 226.096 376.287 C 227.38 376.077 228.646 375.773 229.884 375.375 C 230.727 375.094 231.498 374.743 232.27 374.322 C 232.691 374.042 233.043 373.761 233.323 373.41 C 233.674 372.919 233.744 372.428 233.393 371.937 C 233.253 371.585 232.902 371.375 232.622 371.094 C 231.989 370.673 231.288 370.392 230.586 370.112 C 229.492 369.694 228.365 369.365 227.219 369.13 C 225.459 368.775 223.677 368.541 221.886 368.428 L 218.517 368.287 Z' style='fill:#b3b3b3;'/></g><text id='score' transform='translate(31.74 62.7) scale(0.88 1)' style='opacity:0.6499999761581421;isolation:isolate;font-size:39.33000183105469px;fill:#fff;font-family:Verdana;letter-spacing:-0.02700198407225477em'>
    111
    </text><path id='chip' d='M201.53,52.8V50.43H196.8v8.74a4.86,4.86,0,0,0,5,4.55h5v-8h-2.37A3.06,3.06,0,0,1,201.53,52.8Zm1.19-11.38V52.61a2,2,0,0,0,2.09,1.82h10.28a2,2,0,0,0,2.09-1.82V41.15a1.7,1.7,0,0,0-1.72-1.64H204.81a2.09,2.09,0,0,0-2.09,1.91Zm-1.19,2.64H196.8v5h4.73ZM208,63.72h4.37V54.43H208ZM218,30.5h-4.36V38h1.72a3,3,0,0,1,3.19,2.91V43h4.37V35C223,32.5,220.73,30.5,218,30.5Zm.64,18.56H223v-5h-4.37Zm-17.11-8.19A3,3,0,0,1,204.44,38h2.37V30.5h-5a4.8,4.8,0,0,0-5,4.55v8h4.73ZM218.64,52.8a3.06,3.06,0,0,1-3.18,2.91h-1.73v8h4.36a4.8,4.8,0,0,0,5-4.55V50.43h-4.37V52.8Zm-6.19-22.3h-4.37v9h4.37Z' transform='translate(0 0)' style='fill:url(#tintGradeint)'/></svg>
